# xmcd
#
# Track frame offsets: 
#        150
#        26102
#        44060
#        55470
#        78725
#        100412
#        115462
#        134502
#        152097
#        172262
#
# Disc length: 2530 seconds
#
# Revision: 0
# Processed by: cddbd v1.5.1PL0 Copyright (c) Steve Scherf et al.
# Submitted via: ExactAudioCopy v0.95a2
#
DISCID=9909e00a
DTITLE=James Cotton Band - Extended Version (Live)
DYEAR=2004
DGENRE=Blues
TTITLE0=Flip, Flop and Fly
TTITLE1=Mojo
TTITLE2=Rocket 88
TTITLE3=Caldonia
TTITLE4=Boogie Thing
TTITLE5=Good Morning Lil' School Girl
TTITLE6=Help Me
TTITLE7=Fannie Mae
TTITLE8=Goodbye My Lady
TTITLE9=Blow Wind Blow
EXTD=
EXTT0=
EXTT1=
EXTT2=
EXTT3=
EXTT4=
EXTT5=
EXTT6=
EXTT7=
EXTT8=
EXTT9=
PLAYORDER=
